<svg viewBox="0 0 36 36" xmlns="http://www.w3.org/2000/svg">
  <path fill="#c5a065" d="M31.11 16.135c-.001-1.104-.896-2-2-2s-2 .896-2 2v8.125c0 .552-.448 1-1 1s-1-.448-1-1v-11.25c0-1.104-.896-2-2-2s-2 .896-2 2v11.25c0 .552-.448 1-1 1s-1-.448-1-1v-11.25c0-1.104-.896-2-2-2s-2 .896-2 2v11.25c0 .552-.448 1-1 1s-1-.448-1-1v-8.125c0-1.104-.896-2-2-2s-2 .896-2 2v11.375c0 1.104.896 2 2 2h.125c.068 4.414 3.125 8.5 7.875 8.5s7.807-4.086 7.875-8.5h.125c1.104 0 2-.896 2-2v-11.375z"/>
  <path fill="#c5a065" d="M11.11 23.135c-.852 0-1.597.534-1.879 1.281-.641 1.701-2.232 5.719-2.232 5.719-.389 1.033.129 2.18 1.162 2.568 1.032.388 2.18-.129 2.568-1.162l1.875-5c.188-.5.062-1.062-.312-1.438-.313-.312-.75-.968-1.182-.968z"/>
</svg>