<svg xmlns="http://www.w3.org/2000/svg" viewBox="0 0 448 512">
  <path fill="#c5a065" d="M433.1 251.1c-10.7-10.7-28.1-10.7-38.8 0L352 293.5V104c0-13.3-10.7-24-24-24s-24 10.7-24 24v184h-16V40c0-13.3-10.7-24-24-24s-24 10.7-24 24v248h-16V24c0-13.3-10.7-24-24-24S176 10.7 176 24v264h-16V88c0-13.3-10.7-24-24-24s-24 10.7-24 24v240.4l-42.3-42.3c-10.7-10.7-28.1-10.7-38.8 0-10.7 10.7-10.7 28.1 0 38.8l112 112c10.7 10.7 25.2 16.7 40.4 16.7H320c70.7 0 128-57.3 128-128v-64c0-13.3-10.7-24-24-24l-10.9.4z"/>
</svg>