<svg xmlns="http://www.w3.org/2000/svg" viewBox="0 0 448 512">
  <path fill="#c5a065" d="M32 128c0-17.7 14.3-32 32-32s32 14.3 32 32l0 160c0 17.7 14.3 32 32 32s32-14.3 32-32l0-224c0-17.7 14.3-32 32-32s32 14.3 32 32l0 160c0 17.7 14.3 32 32 32s32-14.3 32-32l0-160c0-17.7 14.3-32 32-32s32 14.3 32 32l0 224c0 17.7 14.3 32 32 32s32-14.3 32-32l0-160c0-17.7 14.3-32 32-32s32 14.3 32 32l0 224c0 76.1-51.1 140.3-120.7 159.1c-1.1 .3-2.2 .6-3.3 .9l-114 28.5c-31.1 7.8-62.9-8.9-73.1-39.1L32.9 354.8C12.1 292.4 32 128 32 128z"/>
</svg>